<?xml version="1.0" standalone="no"?>
<!DOCTYPE svg PUBLIC "-//W3C//DTD SVG 20010904//EN"
 "http://www.w3.org/TR/2001/REC-SVG-20010904/DTD/svg10.dtd">
<svg version="1.0" xmlns="http://www.w3.org/2000/svg"
 width="171.000000pt" height="55.000000pt" viewBox="0 0 171.000000 55.000000"
 preserveAspectRatio="xMidYMid meet">

<g transform="translate(0.000000,55.000000) scale(0.100000,-0.100000)"
fill="#000000" stroke="none">
<path d="M157 443 c-3 -5 5 -8 18 -8 13 0 21 3 18 8 -2 4 -10 7 -18 7 -8 0
-16 -3 -18 -7z"/>
<path d="M266 433 c-4 -9 -5 -16 -4 -17 63 -32 79 -35 85 -21 3 9 4 17 2 18
-2 2 -20 10 -41 19 -33 15 -37 15 -42 1z"/>
<path d="M431 431 c-6 -10 -8 -21 -5 -23 2 -3 -11 -42 -31 -87 -19 -46 -35
-86 -35 -90 0 -4 16 -13 36 -20 44 -16 70 0 33 19 -13 7 -25 14 -27 15 -6 5
53 132 71 152 16 19 18 25 7 38 -17 20 -37 19 -49 -4z m39 -17 c0 -8 -7 -14
-15 -14 -15 0 -21 21 -9 33 10 9 24 -2 24 -19z"/>
<path d="M195 410 c-4 -6 9 -17 27 -24 18 -8 55 -24 81 -35 62 -27 63 -27 76
11 14 41 -3 64 -18 25 -11 -29 -8 -30 -104 12 -57 24 -54 24 -62 11z"/>
<path d="M1343 365 c-58 -25 -77 -78 -48 -135 19 -36 43 -50 87 -50 49 1 68
20 68 68 0 36 -3 42 -25 48 -14 3 -32 4 -40 0 -23 -8 -18 -36 6 -36 14 0 19
-5 17 -17 -9 -46 -78 -12 -78 37 0 38 22 54 65 46 27 -5 37 -3 41 9 8 20 4 23
-33 34 -20 6 -40 4 -60 -4z"/>
<path d="M587 350 c-69 -54 -25 -170 66 -170 32 0 62 23 54 43 -5 14 -11 15
-31 6 -36 -17 -76 10 -76 51 0 37 28 53 75 44 31 -5 35 -4 35 14 0 37 -81 45
-123 12z"/>
<path d="M1193 357 c-27 -36 -36 -68 -25 -79 7 -7 12 -21 12 -33 0 -32 29 -67
53 -63 25 4 37 38 13 38 -24 0 -21 46 4 53 11 3 20 13 20 22 0 9 -9 19 -20 22
-11 3 -20 13 -20 23 0 22 -25 33 -37 17z"/>
<path d="M1496 339 c-69 -81 21 -199 115 -149 53 29 61 121 12 160 -40 32 -95
27 -127 -11z m95 -19 c37 -20 16 -100 -27 -100 -17 0 -54 36 -54 53 0 20 30
57 46 57 9 0 24 -5 35 -10z"/>
<path d="M187 353 c-12 -12 -7 -22 13 -28 28 -9 25 -30 -18 -116 -21 -42 -36
-81 -34 -87 2 -7 15 -12 28 -12 23 0 28 9 25 37 -1 7 10 40 25 75 48 115 48
106 8 123 -42 17 -39 17 -47 8z m3 -219 c0 -8 -7 -14 -15 -14 -15 0 -21 21 -9
33 10 9 24 -2 24 -19z"/>
<path d="M437 290 c-20 -53 2 -62 25 -9 12 29 13 39 3 43 -8 3 -19 -11 -28
-34z"/>
<path d="M740 248 c0 -61 2 -69 18 -66 12 2 18 16 22 48 4 39 8 45 28 43 12
-2 23 2 24 7 4 32 1 35 -44 36 l-48 1 0 -69z"/>
<path d="M855 310 c-4 -6 7 -34 24 -63 27 -49 28 -54 15 -80 -8 -15 -12 -32
-9 -38 16 -24 39 2 76 85 30 69 37 91 27 98 -20 12 -23 10 -42 -29 l-18 -37
-21 37 c-21 37 -40 46 -52 27z"/>
<path d="M1020 219 c0 -90 2 -100 18 -97 11 2 18 14 20 36 3 28 7 32 32 32 18
0 34 8 44 22 36 51 4 99 -67 103 l-47 4 0 -100z m85 31 c0 -22 -39 -19 -43 3
-3 15 1 18 20 15 12 -2 23 -10 23 -18z"/>
<path d="M165 274 c-18 -44 -18 -44 -1 -44 12 0 36 47 36 71 0 22 -21 5 -35
-27z"/>
<path d="M252 205 c-7 -14 -12 -32 -12 -40 0 -22 18 -18 25 5 8 26 18 25 93
-7 42 -18 66 -23 73 -16 8 8 -49 37 -157 80 -6 2 -16 -8 -22 -22z"/>
<path d="M280 157 c0 -7 16 -21 35 -30 43 -21 42 -21 49 -2 4 10 -6 20 -31 30
-44 18 -53 19 -53 2z"/>
<path d="M467 131 c-4 -17 -3 -21 5 -13 5 5 8 16 6 23 -3 8 -7 3 -11 -10z"/>
</g>
</svg>
